<?xml version="1.0" encoding="UTF-8"?>
<svg version="1.1" xmlns="http://www.w3.org/2000/svg" width="256" height="256">
<path d="M0 0 C3.82608393 3.24587664 7.22553587 6.4007576 10.125 10.5 C10.125 11.16 10.125 11.82 10.125 12.5 C12.58665693 10.0600508 15.02150996 7.61156118 17.37890625 5.0703125 C28.43815355 -6.64388177 42.2725473 -13.57328651 58.4296875 -14.73828125 C76.07179336 -15.10502087 91.45285011 -10.42836324 105 1.3125 C119.47535145 15.26262099 126.42440628 33.51187445 127.125 53.41015625 C127.50150298 81.70838912 112.05138387 103.95463304 93.125 123.5 C90.41046837 126.28553132 87.67962236 129.05413322 84.9375 131.8125 C83.95801392 132.79911621 83.95801392 132.79911621 82.95874023 133.80566406 C78.51070456 138.23857989 73.89512587 142.41730665 69.125 146.5 C68.2753064 147.23222778 68.2753064 147.23222778 67.40844727 147.97924805 C65.7750918 149.38529467 64.13810826 150.78699471 62.5 152.1875 C61.27863609 153.23306153 60.05728221 154.27863478 58.8359375 155.32421875 C57.91312988 156.1138501 57.91312988 156.1138501 56.97167969 156.91943359 C54.60034652 158.949049 52.2304549 160.98034202 49.86083984 163.01196289 C48.70254102 164.00490682 47.54401188 164.99758216 46.38525391 165.98999023 C43.41389726 168.53514473 40.4461442 171.08431726 37.484375 173.640625 C34.57140406 176.15409158 31.64499768 178.65116357 28.71191406 181.14111328 C27.2294111 182.41059197 25.7662445 183.70255508 24.3046875 184.99609375 C19.22327876 189.35491684 15.94942475 191.83562745 9.125 191.5 C3.02127459 189.91755267 -0.66015847 186.21480616 -5.203125 181.9609375 C-7.84850745 179.52440104 -10.57405436 177.2549986 -13.375 175 C-17.84064707 171.3873417 -22.10784615 167.61106455 -26.3515625 163.7421875 C-28.92582358 161.45484096 -31.56789489 159.28451729 -34.25 157.125 C-39.3111505 153.03026437 -44.09443203 148.70819338 -48.85546875 144.2734375 C-51.07135902 142.21539863 -53.33851689 140.2285871 -55.62890625 138.25390625 C-79.70658134 117.24688315 -102.26436753 92.81633801 -104.75 59.5 C-105.74623074 39.78084295 -99.81539912 21.10260672 -87.25 5.8125 C-63.68067346 -19.21004128 -26.46490485 -20.96753447 0 0 Z M-71.875 11.5 C-72.48214844 12.02464844 -73.08929688 12.54929687 -73.71484375 13.08984375 C-83.49219468 22.18256617 -89.55321184 35.54535241 -90.11328125 48.87109375 C-90.70748616 75.81282403 -78.34301068 95.04613037 -60.28125 114.03515625 C-51.18696569 123.39324008 -41.63165682 132.311176 -31.4140625 140.4296875 C-28.63864014 142.6927242 -26.0088161 145.07392151 -23.375 147.5 C-18.90997583 151.60934657 -14.2943052 155.46235486 -9.57421875 159.2734375 C-6.00969233 162.21378491 -2.59570241 165.30363359 0.8203125 168.4140625 C3.86930706 171.17366097 6.98840547 173.84071334 10.125 176.5 C14.18496279 174.81660079 17.23774368 171.9885361 20.5 169.125 C21.75771772 168.03374492 23.01553292 166.94260218 24.2734375 165.8515625 C24.9137793 165.2937207 25.55412109 164.73587891 26.21386719 164.16113281 C29.17046148 161.59129792 32.14820338 159.04637076 35.125 156.5 C36.28782882 155.50268391 37.45058898 154.50528777 38.61328125 153.5078125 C40.98184465 151.47723735 43.35466465 149.45178502 45.73046875 147.4296875 C52.14992368 141.95929399 58.47987854 136.4215158 64.69140625 130.71484375 C66.74164235 128.84889854 68.8233992 127.04229264 70.9375 125.25 C87.94893105 110.36499783 105.57587017 92.1551251 111.125 69.5 C111.30675781 68.78199219 111.48851562 68.06398438 111.67578125 67.32421875 C114.23085819 51.26056113 111.72400117 35.37480757 103.125 21.5 C94.75095743 10.28648323 83.915349 2.31171292 69.9609375 -0.03125 C56.30758212 -1.46501524 44.62577494 1.2256185 33.5 9.4375 C27.46241068 14.56945092 22.80596256 20.51619875 18.15625 26.875 C16.125 29.5 16.125 29.5 14.125 30.5 C10.63350744 30.88794362 8.69739009 30.8291243 5.625 29.0625 C3.44861581 26.8317062 1.97844972 24.84995927 0.3125 22.25 C-6.27064334 12.08362674 -15.07668715 5.61932514 -26.3125 1.125 C-43.15535772 -1.82988732 -58.62815152 0.02308535 -71.875 11.5 Z " fill="#FFFFFF" transform="translate(116.875,39.5)"/>
</svg>
